<?xml version="1.0" encoding="iso-8859-1"?>
<!-- Generator: Adobe Illustrator 21.0.0, SVG Export Plug-In . SVG Version: 6.00 Build 0)  -->
<svg version="1.1" id="Capa_1" xmlns="http://www.w3.org/2000/svg" xmlns:xlink="http://www.w3.org/1999/xlink" x="0px" y="0px"
	 viewBox="0 0 54 54" style="enable-background:new 0 0 54 54;" xml:space="preserve">
<g>
	<g>
		<path style="fill:#FFB778;" d="M26.583,53L26.583,53c-14.359,0-26-11.641-26-26l0,0c0-14.359,11.641-26,26-26l0,0
			c14.359,0,26,11.641,26,26l0,0C52.583,41.359,40.942,53,26.583,53z"/>
		<path style="fill:#FFB778;" d="M26.583,54c-14.888,0-27-12.112-27-27s12.112-27,27-27s27,12.112,27,27S41.471,54,26.583,54z
			 M26.583,2c-13.785,0-25,11.215-25,25s11.215,25,25,25s25-11.215,25-25S40.368,2,26.583,2z"/>
	</g>
	<path style="fill:#FFFFFF;" d="M22.294,40c-0.256,0-0.512-0.098-0.707-0.293c-0.391-0.391-0.391-1.023,0-1.414L32.88,27
		L21.587,15.707c-0.391-0.391-0.391-1.023,0-1.414s1.023-0.391,1.414,0l11.498,11.498c0.667,0.667,0.667,1.751,0,2.418
		L23.001,39.707C22.806,39.902,22.55,40,22.294,40z"/>
</g>
</svg>
